<svg 
          width="13.9453125" 
          height="27.890625" fill="none" 
          xmlns="http://www.w3.org/2000/svg">
          <path d="M 3.984375 0 C 1.7876561284065247 0 0 1.7876561284065247 0 3.984375 L 0 7.375742673873901 L 5.213555335998535 9.9609375 L 8.96484375 9.9609375 C 9.514687482267618 9.9609375 9.9609375 10.407187517732382 9.9609375 10.95703125 C 9.9609375 11.506874982267618 9.514687482267618 11.953125 8.96484375 11.953125 L 6.195702314376831 11.953125 L 6.992577314376831 15.9375 L 8.96484375 15.9375 C 9.514687482267618 15.9375 9.9609375 16.383750017732382 9.9609375 16.93359375 C 9.9609375 17.483437482267618 9.514687482267618 17.9296875 8.96484375 17.9296875 L 7.391014814376831 17.9296875 L 7.949491620063782 20.722734212875366 C 8.057069745380431 21.261952955275774 7.707773607224226 21.78656193288043 7.167890787124634 21.89480412006378 C 6.631992369890213 22.00171818351373 6.104727128986269 21.656406432390213 5.995820879936218 21.113203287124634 C 5.784051355905831 20.054355651140213 4.304254628717899 12.65650025382638 4.099258542060852 11.63171899318695 L 0 9.599023640155792 L 0 16.955506920814514 C 0 22.556874006986618 4.244023680686951 27.890625 10.95703125 27.890625 C 10.963671875098953 27.887636718631256 13.9453125 27.801308512687683 13.9453125 24.90234375 L 13.9453125 12.94921875 C 13.9453125 6.9906525909900665 9.931253999471664 0 3.984375 0 L 3.984375 0 Z" fill="rgb(0,0,0)"/>
        </svg>